<mxfile host="app.diagrams.net" modified="2022-09-19T06:29:55.169Z" agent="5.0 (Macintosh; Intel Mac OS X 10_15_7) AppleWebKit/537.36 (KHTML, like Gecko) Chrome/105.0.0.0 Safari/537.36" etag="SEhxNFWBCmB8P-Lo7LFL" version="20.3.2" type="github">
  <diagram id="mW6_1v3Z-ysbQKr4pqtw" name="第 1 页">
    <mxGraphModel dx="1796" dy="614" grid="1" gridSize="10" guides="1" tooltips="1" connect="1" arrows="1" fold="1" page="1" pageScale="1" pageWidth="850" pageHeight="1100" math="0" shadow="0">
      <root>
        <mxCell id="0" />
        <mxCell id="1" parent="0" />
        <mxCell id="MQRSq_4guksDM0yowaz7-44" value="" style="rounded=0;whiteSpace=wrap;html=1;fontSize=12;fillColor=#f5f5f5;fontColor=#333333;strokeColor=#666666;" vertex="1" parent="1">
          <mxGeometry x="-110" y="5" width="890" height="465" as="geometry" />
        </mxCell>
        <mxCell id="MQRSq_4guksDM0yowaz7-22" value="" style="rounded=0;whiteSpace=wrap;html=1;fontSize=20;fillColor=#d5e8d4;strokeColor=#82b366;" vertex="1" parent="1">
          <mxGeometry x="150" y="40" width="380" height="410" as="geometry" />
        </mxCell>
        <mxCell id="MQRSq_4guksDM0yowaz7-18" value="" style="rounded=0;whiteSpace=wrap;html=1;fontSize=20;" vertex="1" parent="1">
          <mxGeometry x="170" y="50" width="340" height="160" as="geometry" />
        </mxCell>
        <mxCell id="MQRSq_4guksDM0yowaz7-15" value="" style="rounded=0;whiteSpace=wrap;html=1;" vertex="1" parent="1">
          <mxGeometry x="170" y="230" width="340" height="130" as="geometry" />
        </mxCell>
        <mxCell id="MQRSq_4guksDM0yowaz7-2" value="Node" style="rounded=1;whiteSpace=wrap;html=1;" vertex="1" parent="1">
          <mxGeometry x="180" y="60" width="150" height="40" as="geometry" />
        </mxCell>
        <mxCell id="MQRSq_4guksDM0yowaz7-3" value="RelationShip" style="rounded=1;whiteSpace=wrap;html=1;" vertex="1" parent="1">
          <mxGeometry x="350" y="60" width="150" height="40" as="geometry" />
        </mxCell>
        <mxCell id="MQRSq_4guksDM0yowaz7-6" value="force layout" style="rounded=1;whiteSpace=wrap;html=1;" vertex="1" parent="1">
          <mxGeometry x="180" y="265" width="100" height="35" as="geometry" />
        </mxCell>
        <mxCell id="MQRSq_4guksDM0yowaz7-7" value="环形" style="rounded=1;whiteSpace=wrap;html=1;" vertex="1" parent="1">
          <mxGeometry x="290" y="265" width="100" height="35" as="geometry" />
        </mxCell>
        <mxCell id="MQRSq_4guksDM0yowaz7-8" value="环形" style="rounded=1;whiteSpace=wrap;html=1;" vertex="1" parent="1">
          <mxGeometry x="400" y="265" width="100" height="35" as="geometry" />
        </mxCell>
        <mxCell id="MQRSq_4guksDM0yowaz7-10" value="层次" style="rounded=1;whiteSpace=wrap;html=1;" vertex="1" parent="1">
          <mxGeometry x="180" y="310" width="100" height="35" as="geometry" />
        </mxCell>
        <mxCell id="MQRSq_4guksDM0yowaz7-11" value="矩阵" style="rounded=1;whiteSpace=wrap;html=1;" vertex="1" parent="1">
          <mxGeometry x="290" y="310" width="100" height="35" as="geometry" />
        </mxCell>
        <mxCell id="MQRSq_4guksDM0yowaz7-13" value="网络" style="rounded=1;whiteSpace=wrap;html=1;" vertex="1" parent="1">
          <mxGeometry x="400" y="307.5" width="100" height="35" as="geometry" />
        </mxCell>
        <mxCell id="MQRSq_4guksDM0yowaz7-14" value="布局 layout" style="text;html=1;strokeColor=none;fillColor=none;align=center;verticalAlign=middle;whiteSpace=wrap;rounded=0;" vertex="1" parent="1">
          <mxGeometry x="170" y="230" width="70" height="30" as="geometry" />
        </mxCell>
        <mxCell id="MQRSq_4guksDM0yowaz7-17" value="&lt;font style=&quot;font-size: 20px;&quot;&gt;Graph Visualization&lt;/font&gt;" style="rounded=1;whiteSpace=wrap;html=1;" vertex="1" parent="1">
          <mxGeometry x="170" y="380" width="340" height="60" as="geometry" />
        </mxCell>
        <mxCell id="MQRSq_4guksDM0yowaz7-20" value="node(relationship) attribute display" style="rounded=1;whiteSpace=wrap;html=1;" vertex="1" parent="1">
          <mxGeometry x="180" y="110" width="320" height="40" as="geometry" />
        </mxCell>
        <mxCell id="MQRSq_4guksDM0yowaz7-21" value="node(relationship) operate" style="rounded=1;whiteSpace=wrap;html=1;" vertex="1" parent="1">
          <mxGeometry x="180" y="160" width="320" height="40" as="geometry" />
        </mxCell>
        <mxCell id="MQRSq_4guksDM0yowaz7-23" value="" style="rounded=0;whiteSpace=wrap;html=1;fontSize=20;fillColor=#e1d5e7;strokeColor=#9673a6;" vertex="1" parent="1">
          <mxGeometry x="-80" y="40" width="150" height="410" as="geometry" />
        </mxCell>
        <mxCell id="MQRSq_4guksDM0yowaz7-24" value="概念分类查询" style="rounded=1;whiteSpace=wrap;html=1;" vertex="1" parent="1">
          <mxGeometry x="-60" y="65" width="120" height="35" as="geometry" />
        </mxCell>
        <mxCell id="MQRSq_4guksDM0yowaz7-25" value="度查询" style="rounded=1;whiteSpace=wrap;html=1;" vertex="1" parent="1">
          <mxGeometry x="-60" y="110" width="120" height="35" as="geometry" />
        </mxCell>
        <mxCell id="MQRSq_4guksDM0yowaz7-26" value="节点 边查询" style="rounded=1;whiteSpace=wrap;html=1;" vertex="1" parent="1">
          <mxGeometry x="-60" y="160" width="120" height="35" as="geometry" />
        </mxCell>
        <mxCell id="MQRSq_4guksDM0yowaz7-27" value="路径查询" style="rounded=1;whiteSpace=wrap;html=1;" vertex="1" parent="1">
          <mxGeometry x="-60" y="210" width="120" height="35" as="geometry" />
        </mxCell>
        <mxCell id="MQRSq_4guksDM0yowaz7-28" value="图计算" style="rounded=1;whiteSpace=wrap;html=1;" vertex="1" parent="1">
          <mxGeometry x="-60" y="260" width="120" height="35" as="geometry" />
        </mxCell>
        <mxCell id="MQRSq_4guksDM0yowaz7-29" value="出入度权重" style="rounded=1;whiteSpace=wrap;html=1;" vertex="1" parent="1">
          <mxGeometry x="-60" y="310" width="120" height="35" as="geometry" />
        </mxCell>
        <mxCell id="MQRSq_4guksDM0yowaz7-30" value="信息检测" style="rounded=1;whiteSpace=wrap;html=1;" vertex="1" parent="1">
          <mxGeometry x="-60" y="360" width="120" height="35" as="geometry" />
        </mxCell>
        <mxCell id="MQRSq_4guksDM0yowaz7-31" value="快照" style="rounded=1;whiteSpace=wrap;html=1;" vertex="1" parent="1">
          <mxGeometry x="-60" y="405" width="120" height="35" as="geometry" />
        </mxCell>
        <mxCell id="MQRSq_4guksDM0yowaz7-32" value="&lt;span style=&quot;font-size: 12px;&quot;&gt;图谱操作&lt;/span&gt;" style="text;html=1;strokeColor=none;fillColor=none;align=center;verticalAlign=middle;whiteSpace=wrap;rounded=0;fontSize=20;" vertex="1" parent="1">
          <mxGeometry x="-80" y="40" width="60" height="20" as="geometry" />
        </mxCell>
        <mxCell id="MQRSq_4guksDM0yowaz7-33" value="" style="shape=flexArrow;endArrow=classic;html=1;rounded=0;fontSize=12;exitX=1;exitY=0.5;exitDx=0;exitDy=0;entryX=0;entryY=0.5;entryDx=0;entryDy=0;" edge="1" parent="1" source="MQRSq_4guksDM0yowaz7-23" target="MQRSq_4guksDM0yowaz7-22">
          <mxGeometry width="50" height="50" relative="1" as="geometry">
            <mxPoint x="-60" y="280" as="sourcePoint" />
            <mxPoint x="-10" y="230" as="targetPoint" />
          </mxGeometry>
        </mxCell>
        <mxCell id="MQRSq_4guksDM0yowaz7-34" value="" style="rounded=0;whiteSpace=wrap;html=1;fontSize=20;fillColor=#fff2cc;strokeColor=#d6b656;" vertex="1" parent="1">
          <mxGeometry x="610" y="40" width="150" height="410" as="geometry" />
        </mxCell>
        <mxCell id="MQRSq_4guksDM0yowaz7-35" value="" style="shape=flexArrow;endArrow=classic;html=1;rounded=0;fontSize=12;exitX=1;exitY=0.5;exitDx=0;exitDy=0;entryX=0;entryY=0.5;entryDx=0;entryDy=0;" edge="1" parent="1">
          <mxGeometry width="50" height="50" relative="1" as="geometry">
            <mxPoint x="530" y="245" as="sourcePoint" />
            <mxPoint x="610" y="245" as="targetPoint" />
          </mxGeometry>
        </mxCell>
        <mxCell id="MQRSq_4guksDM0yowaz7-36" value="&lt;span style=&quot;font-size: 12px;&quot;&gt;事件&lt;/span&gt;" style="text;html=1;strokeColor=none;fillColor=none;align=center;verticalAlign=middle;whiteSpace=wrap;rounded=0;fontSize=20;" vertex="1" parent="1">
          <mxGeometry x="610" y="40" width="60" height="20" as="geometry" />
        </mxCell>
        <mxCell id="MQRSq_4guksDM0yowaz7-37" value="click event" style="rounded=1;whiteSpace=wrap;html=1;" vertex="1" parent="1">
          <mxGeometry x="625" y="65" width="120" height="35" as="geometry" />
        </mxCell>
        <mxCell id="MQRSq_4guksDM0yowaz7-38" value="operate event" style="rounded=1;whiteSpace=wrap;html=1;" vertex="1" parent="1">
          <mxGeometry x="625" y="260" width="120" height="35" as="geometry" />
        </mxCell>
        <mxCell id="MQRSq_4guksDM0yowaz7-39" value="before layout event" style="rounded=1;whiteSpace=wrap;html=1;" vertex="1" parent="1">
          <mxGeometry x="625" y="360" width="120" height="35" as="geometry" />
        </mxCell>
        <mxCell id="MQRSq_4guksDM0yowaz7-40" value="after layout event" style="rounded=1;whiteSpace=wrap;html=1;" vertex="1" parent="1">
          <mxGeometry x="625" y="310" width="120" height="35" as="geometry" />
        </mxCell>
        <mxCell id="MQRSq_4guksDM0yowaz7-41" value="dbclick event" style="rounded=1;whiteSpace=wrap;html=1;" vertex="1" parent="1">
          <mxGeometry x="625" y="112.5" width="120" height="35" as="geometry" />
        </mxCell>
        <mxCell id="MQRSq_4guksDM0yowaz7-42" value="scale event" style="rounded=1;whiteSpace=wrap;html=1;" vertex="1" parent="1">
          <mxGeometry x="625" y="160" width="120" height="35" as="geometry" />
        </mxCell>
        <mxCell id="MQRSq_4guksDM0yowaz7-43" value="drag event" style="rounded=1;whiteSpace=wrap;html=1;" vertex="1" parent="1">
          <mxGeometry x="625" y="210" width="120" height="35" as="geometry" />
        </mxCell>
        <mxCell id="MQRSq_4guksDM0yowaz7-45" value="attribute event" style="rounded=1;whiteSpace=wrap;html=1;" vertex="1" parent="1">
          <mxGeometry x="625" y="405" width="120" height="35" as="geometry" />
        </mxCell>
      </root>
    </mxGraphModel>
  </diagram>
</mxfile>
